<?xml version="1.0" encoding="UTF-8" standalone="no"?>
<!-- Generator: Adobe Illustrator 15.0.0, SVG Export Plug-In . SVG Version: 6.00 Build 0)  -->

<svg
   xmlns:dc="http://purl.org/dc/elements/1.1/"
   xmlns:cc="http://creativecommons.org/ns#"
   xmlns:rdf="http://www.w3.org/1999/02/22-rdf-syntax-ns#"
   xmlns:svg="http://www.w3.org/2000/svg"
   xmlns="http://www.w3.org/2000/svg"
   xmlns:sodipodi="http://sodipodi.sourceforge.net/DTD/sodipodi-0.dtd"
   xmlns:inkscape="http://www.inkscape.org/namespaces/inkscape"
   version="1.1"
   x="0px"
   y="0px"
   width="299.27335"
   height="403.8183"
   viewBox="0 0 299.27335 403.81831"
   enable-background="new 0 0 425.197 425.197"
   xml:space="preserve"
   id="svg62"
   sodipodi:docname="js-logo.svg"
   inkscape:version="0.92.2 (5c3e80d, 2017-08-06)"><metadata
     id="metadata68"><rdf:RDF><cc:Work
         rdf:about=""><dc:format>image/svg+xml</dc:format><dc:type
           rdf:resource="http://purl.org/dc/dcmitype/StillImage" /><dc:title></dc:title></cc:Work></rdf:RDF></metadata><defs
     id="defs66" /><sodipodi:namedview
     pagecolor="#ffffff"
     bordercolor="#666666"
     borderopacity="1"
     objecttolerance="10"
     gridtolerance="10"
     guidetolerance="10"
     inkscape:pageopacity="0"
     inkscape:pageshadow="2"
     inkscape:window-width="1680"
     inkscape:window-height="986"
     id="namedview64"
     showgrid="false"
     fit-margin-top="0"
     fit-margin-left="0"
     fit-margin-right="0"
     fit-margin-bottom="0"
     inkscape:zoom="1.5698813"
     inkscape:cx="274.97842"
     inkscape:cy="171.46922"
     inkscape:window-x="0"
     inkscape:window-y="27"
     inkscape:window-maximized="1"
     inkscape:current-layer="svg62" /><g
     id="pics_couleur"
     display="none"
     style="display:none"
     transform="translate(-0.756852,-0.5520733)"><polygon
       display="inline"
       points="114.554,431.232 186.551,470.23 -11.439,611.224 "
       id="polygon2"
       style="display:inline;fill:#ffed00" /><polygon
       display="inline"
       points="273.546,512.228 212.049,480.73 131.053,600.724 "
       id="polygon4"
       style="display:inline;fill:#e6007e" /><polygon
       display="inline"
       points="356.042,552.726 302.044,528.728 273.546,617.223 "
       id="polygon6"
       style="display:inline;fill:#009fe3" /><polygon
       display="inline"
       points="53.362,267.741 68.057,321.616 -9.939,333.738 "
       id="polygon8"
       style="display:inline;fill:#6d2f88" /><polygon
       display="inline"
       points="76.998,360.736 86.555,414.886 -5.44,440.232 "
       id="polygon10"
       style="display:inline;fill:#a8c813" /></g><g
     id="applat_couleur"
     display="none"
     style="display:none"
     transform="translate(-0.756852,-0.5520733)"><polygon
       display="inline"
       points="230.048,-243.734 -167.432,-231.735 90.555,422.233 564.532,669.72 599.03,-215.235 "
       id="polygon13"
       style="display:inline;fill:#f6f6f6" /></g><g
     id="GrandJS"
     transform="translate(-59.997,-5.648)"><g
       id="g18"><path
         d="m 69.852,217.443 30.146,-11.21 3.432,9.229 c 10.981,29.53 31.982,33.275 49.208,26.869 16.918,-6.292 30.177,-22.426 19.538,-51.033 L 124.588,63.333 69.834,83.695 59.997,57.241 145.203,25.554 202.743,180.28 c 17.502,47.063 -8.319,78.375 -40.002,90.157 -31.684,11.782 -71.496,4.529 -88.884,-42.227 z"
         id="path16"
         inkscape:connector-curvature="0"
         style="fill:#009fe3" /></g><g
       id="g22"><path
         d="m 198.062,363.659 c 0,0 37.801,17.611 76.239,3.317 24.16,-8.985 39.623,-30.154 30.502,-54.682 -20.828,-56.007 -141.532,2.631 -171.073,-76.807 -14.975,-40.269 7.958,-85.049 56.646,-103.155 47.956,-17.834 82.88,-1.237 82.88,-1.237 l -5.31,36.145 c 0,0 -32.1,-13.481 -65.046,-1.229 -27.455,10.21 -40.459,34.63 -32.835,55.13 19.875,53.447 139.763,-7.389 170.938,76.442 14.839,39.901 -3.659,84.283 -54.909,103.342 -54.911,20.421 -98.321,-2.189 -98.321,-2.189 z"
         id="path20"
         inkscape:connector-curvature="0"
         style="fill:#009fe3" /></g><g
       id="g26"
       style="opacity:0.06000001"><path
         d="m 83.16,197.538 30.145,-11.21 3.432,9.229 c 10.982,29.53 31.983,33.275 49.208,26.869 16.918,-6.292 30.176,-22.426 19.538,-51.033 L 137.896,43.427 83.141,63.789 73.304,37.335 158.511,5.648 l 57.54,154.726 c 17.502,47.063 -8.319,78.375 -40.003,90.158 -31.683,11.783 -71.496,4.528 -88.884,-42.228 z"
         id="path24"
         inkscape:connector-curvature="0"
         style="fill:#373636" /></g><g
       id="g30"
       style="opacity:0.06000001"><path
         d="m 211.369,343.75 c 0,0 37.802,17.611 76.239,3.317 24.16,-8.984 39.623,-30.153 30.503,-54.679 -20.829,-56.01 -141.533,2.628 -171.074,-76.808 -14.976,-40.27 7.958,-85.05 56.646,-103.156 47.956,-17.834 82.88,-1.236 82.88,-1.236 l -5.311,36.144 c 0,0 -32.099,-13.481 -65.045,-1.229 -27.455,10.21 -40.459,34.63 -32.835,55.131 19.875,53.446 139.763,-7.389 170.938,76.442 14.839,39.901 -3.659,84.283 -54.909,103.342 -54.911,20.42 -98.321,-2.189 -98.321,-2.189 z"
         id="path28"
         inkscape:connector-curvature="0"
         style="fill:#3a3938" /></g></g><g
     id="courbes"
     transform="translate(-59.997,-5.648)"><path
       d="m 66.8,238.951 c 96.424,-41.283 220.889,-42.854 236.585,-40.148"
       id="path33"
       inkscape:connector-curvature="0"
       style="fill:none;stroke:#f6f6f6;stroke-width:0.5" /><path
       d="m 67.066,235.552 c 95.167,-45.269 219.521,-52.019 235.289,-49.967"
       id="path35"
       inkscape:connector-curvature="0"
       style="fill:none;stroke:#f6f6f6;stroke-width:0.5" /><path
       d="m 67.23,232.144 c 93.794,-49.195 217.888,-61.119 233.708,-59.725"
       id="path37"
       inkscape:connector-curvature="0"
       style="fill:none;stroke:#f6f6f6;stroke-width:0.5" /><path
       d="m 67.295,228.732 c 92.307,-53.065 215.99,-70.146 231.843,-69.412"
       id="path39"
       inkscape:connector-curvature="0"
       style="fill:none;stroke:#f6f6f6;stroke-width:0.5" /><path
       d="m 67.261,225.32 c 90.708,-56.87 213.828,-79.088 229.692,-79.015"
       id="path41"
       inkscape:connector-curvature="0"
       style="fill:none;stroke:#f6f6f6;stroke-width:0.5" /><path
       d="M 67.125,221.912 C 156.126,161.306 278.531,133.978 294.39,133.391"
       id="path43"
       inkscape:connector-curvature="0"
       style="fill:none;stroke:#f6f6f6;stroke-width:0.5" /><path
       d="M 66.894,218.512 C 154.073,154.243 275.62,121.84 291.45,120.594"
       id="path45"
       inkscape:connector-curvature="0"
       style="fill:none;stroke:#f6f6f6;stroke-width:0.5" /><path
       d="m 331.734,227.61 c -96.425,41.283 -220.89,42.854 -236.586,40.148"
       id="path47"
       inkscape:connector-curvature="0"
       style="fill:none;stroke:#f6f6f6;stroke-width:0.5" /><path
       d="M 331.467,231.009 C 236.301,276.278 111.946,283.027 96.178,280.975"
       id="path49"
       inkscape:connector-curvature="0"
       style="fill:none;stroke:#f6f6f6;stroke-width:0.5" /><path
       d="m 331.303,234.417 c -93.794,49.195 -217.888,61.12 -233.708,59.726"
       id="path51"
       inkscape:connector-curvature="0"
       style="fill:none;stroke:#f6f6f6;stroke-width:0.5" /><path
       d="M 331.238,237.829 C 238.931,290.894 115.248,307.975 99.395,307.24"
       id="path53"
       inkscape:connector-curvature="0"
       style="fill:none;stroke:#f6f6f6;stroke-width:0.5" /><path
       d="M 331.273,241.241 C 240.565,298.11 117.445,320.329 101.581,320.256"
       id="path55"
       inkscape:connector-curvature="0"
       style="fill:none;stroke:#f6f6f6;stroke-width:0.5" /><path
       d="M 331.409,244.649 C 242.408,305.255 120.003,332.584 104.144,333.17"
       id="path57"
       inkscape:connector-curvature="0"
       style="fill:none;stroke:#f6f6f6;stroke-width:0.5" /><path
       d="M 331.64,248.049 C 244.461,312.317 122.914,344.72 107.084,345.966"
       id="path59"
       inkscape:connector-curvature="0"
       style="fill:none;stroke:#f6f6f6;stroke-width:0.5" /></g></svg>